# xmcd
#
# Track frame offsets: 
#        150
#        11779
#        26110
#        40640
#        54921
#        68441
#        84968
#        98576
#        109806
#        126395
#
# Disc length: 1832 seconds
#
# Revision: 0
# Processed by: cddbd v1.4PL0 Copyright (c) Steve Scherf et al.
# Submitted via: ExactAudioCopy v0.90b4
#
DISCID=7307260a
DTITLE=George Strait - Pickin On Vol 2
DYEAR=2002
DGENRE=Country
TTITLE0=Big Balls In Cow Town
TTITLE1=You're Something Special To Me
TTITLE2=Does Forth Worth Every Cross Your Mind
TTITLE3=Fool-Hearted Memory
TTITLE4=Amarilo By Morning
TTITLE5=Drinking Champagne
TTITLE6=King Of Broken Hearts
TTITLE7=Stay Out Of My Arms
TTITLE8=Murder On Music Row
TTITLE9=Strait and Strut
EXTD=
EXTT0=
EXTT1=
EXTT2=
EXTT3=
EXTT4=
EXTT5=
EXTT6=
EXTT7=
EXTT8=
EXTT9=
PLAYORDER=
